<svg width="88" height="40" viewBox="0 0 88 40" fill="none" xmlns="http://www.w3.org/2000/svg">
<path d="M44.5564 11.0646L45.4824 10.3196L27.927 14.9989L26.5662 18.3346L44.5564 11.0646Z" fill="black"/>
<path d="M21.5198 16.2498L10.3261 16.5904C10.2227 16.4764 10.1117 16.3662 9.99158 16.2635C8.42854 14.925 5.69169 14.7434 3.48549 15.8291C2.25999 16.4313 1.35075 17.3391 0.921975 18.3847C0.479518 19.4628 0.601155 20.5584 1.26256 21.4675C1.42525 21.6941 1.61987 21.9032 1.84034 22.0911C3.03695 23.1141 4.91929 23.4609 6.72561 23.079C6.77731 23.1604 6.83965 23.2405 6.92175 23.3107C7.38397 23.7051 8.14725 23.7176 8.62772 23.3382C9.00328 23.0402 9.08994 22.5907 8.89076 22.22C9.84105 21.6328 10.5481 20.8502 10.9099 19.9674C11.1578 19.3664 11.2216 18.7603 11.1213 18.1831L20.1559 18.4198L21.5198 16.2498ZM9.53848 19.5905C9.2207 20.3681 8.53345 21.048 7.60292 21.5051C5.96842 22.3102 3.98268 22.2088 2.88034 21.2684C2.7359 21.1432 2.60818 21.0067 2.50174 20.8615C2.06081 20.2554 1.9863 19.5116 2.2904 18.7691C2.60818 17.9915 3.29543 17.3116 4.22444 16.8533C5.85894 16.0482 7.8462 16.1484 8.94702 17.0912C9.09146 17.2152 9.21918 17.3529 9.32562 17.4994C9.76959 18.1042 9.84258 18.848 9.53848 19.5905Z" fill="black"/>
<path d="M23.7686 39.8504C23.8446 39.5937 22.5628 36.7237 23.8035 35.6206C24.3296 35.2825 24.7949 34.8668 25.172 34.3897C26.5738 32.6142 26.4583 30.3553 24.8952 29.018C24.8527 28.9817 24.804 28.9504 24.7599 28.9141L25.5232 18.4636L33.048 0.000610352L31.8924 1.22396L21.2491 18.1856L23.0251 19.7746L22.35 27.9799C21.7311 27.9198 21.0834 27.9649 20.4342 28.1214C19.1494 28.4345 18.0136 29.147 17.2351 30.1324C15.8332 31.9079 15.9488 34.1668 17.5118 35.5054C17.7323 35.6907 17.9801 35.8597 18.2462 36.0012C18.8468 36.3243 19.5234 36.5046 20.2335 36.5509C21.9805 37.1945 22.093 39.188 22.3028 39.5987C22.5157 40.0144 23.6865 40.1208 23.7686 39.8504ZM23.1421 18.2094C22.8532 17.9602 22.8624 17.5658 23.1634 17.3266C23.4645 17.09 23.9434 17.0962 24.2338 17.3454C24.5227 17.5921 24.5136 17.9878 24.2125 18.2257C23.91 18.4648 23.431 18.4573 23.1421 18.2094ZM21.5654 35.2575C20.6516 35.4803 19.753 35.3877 19.0338 35.0045C18.859 34.9106 18.6978 34.8017 18.5534 34.6765C17.451 33.7348 17.4069 32.0945 18.4454 30.7823C19.0353 30.0322 19.8868 29.4951 20.8432 29.2622C21.757 29.0393 22.6541 29.1307 23.3732 29.5138C23.5481 29.609 23.7093 29.7192 23.8537 29.8444C24.9561 30.786 24.9986 32.4251 23.9617 33.7398C23.3702 34.4861 22.5187 35.0271 21.5654 35.2575Z" fill="black"/>
<path d="M40.78 6.8C38.9667 6.8 38.06 8.30667 38.06 11.32C38.06 14.3333 38.98 15.84 40.82 15.84C41.5133 15.84 42.08 15.5867 42.52 15.08C42.9733 14.5733 43.2867 13.92 43.46 13.12L43.82 13.16C43.62 14.1333 43.22 14.92 42.62 15.52C42.02 16.1067 41.26 16.4 40.34 16.4C38.9667 16.4 37.92 15.94 37.2 15.02C36.48 14.0867 36.12 12.8667 36.12 11.36C36.12 9.85334 36.48 8.65334 37.2 7.76C37.9333 6.85334 39.02 6.4 40.46 6.4C41.38 6.4 42.1267 6.6 42.7 7C43.2733 7.4 43.56 8.00667 43.56 8.82C43.56 9.22 43.4267 9.56 43.16 9.84C42.9067 10.1067 42.6 10.24 42.24 10.24C41.8933 10.24 41.6067 10.14 41.38 9.94C41.1667 9.72667 41.06 9.47334 41.06 9.18C41.06 8.87334 41.1467 8.62 41.32 8.42C41.4933 8.20667 41.7267 8.1 42.02 8.1C42.4733 8.1 42.74 8.27334 42.82 8.62C42.8333 8.74 42.8933 8.8 43 8.8C43.12 8.8 43.18 8.74 43.18 8.62C43.18 8.16667 42.9733 7.75334 42.56 7.38C42.16 6.99334 41.5667 6.8 40.78 6.8Z" fill="black"/>
<path d="M49.3997 15.7V16H44.9797V15.7H46.2997V2.5H44.8797V2.2H45.2997C46.353 2.2 47.293 2.11334 48.1197 1.94V8.54H48.2397C48.4664 7.9 48.8464 7.38667 49.3797 7C49.9264 6.6 50.533 6.4 51.1997 6.4C52.3597 6.4 53.153 6.74667 53.5797 7.44C54.0064 8.12 54.2197 9.14 54.2197 10.5V15.7H55.5397V16H51.1197V15.7H52.4397V10.78C52.4397 9.27334 52.3264 8.28 52.0997 7.8C51.993 7.58667 51.8264 7.39334 51.5997 7.22C51.3864 7.04667 51.0664 6.96 50.6397 6.96C50.213 6.96 49.8064 7.11334 49.4197 7.42C49.0464 7.72667 48.7664 8.14667 48.5797 8.68C48.2464 9.62667 48.0797 10.76 48.0797 12.08V15.7H49.3997Z" fill="black"/>
<path d="M59.8775 15.7H61.1975V16H56.7775V15.7H58.0975V7.1H56.6775V6.8H57.0975C58.1375 6.8 59.0642 6.71334 59.8775 6.54V15.7ZM58.0775 4.62C57.8642 4.39334 57.7575 4.11334 57.7575 3.78C57.7575 3.44667 57.8642 3.16667 58.0775 2.94C58.3042 2.71334 58.5842 2.6 58.9175 2.6C59.2508 2.6 59.5308 2.71334 59.7575 2.94C59.9842 3.16667 60.0975 3.44667 60.0975 3.78C60.0975 4.11334 59.9842 4.39334 59.7575 4.62C59.5308 4.83334 59.2508 4.94 58.9175 4.94C58.5842 4.94 58.3042 4.83334 58.0775 4.62Z" fill="black"/>
<path d="M66.9955 10.76L65.7155 10.98V15.7H67.0355V16H62.6155V15.7H63.9355V2.5H62.5155V2.2H62.9355C63.9755 2.2 64.9021 2.11334 65.7155 1.94V10.64C68.3555 10.2933 69.6755 9.44 69.6755 8.08C69.6755 7.68 69.5688 7.36 69.3555 7.12C69.1555 6.88 68.9021 6.76 68.5955 6.76C68.4621 6.76 68.3955 6.81334 68.3955 6.92C68.3955 7.02667 68.4555 7.09334 68.5755 7.12C68.9221 7.2 69.0955 7.46 69.0955 7.9C69.0955 8.18 68.9888 8.41334 68.7755 8.6C68.5755 8.77334 68.3221 8.86 68.0155 8.86C67.7221 8.86 67.4688 8.75334 67.2555 8.54C67.0555 8.31334 66.9555 8.02667 66.9555 7.68C66.9555 7.33334 67.0888 7.03334 67.3555 6.78C67.6355 6.52667 68.0021 6.4 68.4555 6.4C68.9088 6.4 69.2821 6.55334 69.5755 6.86C69.8688 7.15334 70.0155 7.56 70.0155 8.08C70.0155 9.18667 69.3221 9.98667 67.9355 10.48V10.52C68.9755 10.5733 69.6555 10.8467 69.9755 11.34C70.2955 11.8333 70.4555 12.64 70.4555 13.76V14.52C70.4555 15.0267 70.4955 15.3933 70.5755 15.62C70.6688 15.8333 70.8355 15.94 71.0755 15.94C71.1688 15.94 71.2888 15.92 71.4355 15.88L71.4755 16.12C71.1288 16.2133 70.7688 16.26 70.3955 16.26C69.2488 16.26 68.6755 15.6 68.6755 14.28V13.2C68.6755 11.5733 68.1555 10.76 67.1155 10.76H66.9955Z" fill="black"/>
<path d="M40.78 26.8C38.9667 26.8 38.06 28.3067 38.06 31.32C38.06 34.3333 38.98 35.84 40.82 35.84C41.5133 35.84 42.08 35.5867 42.52 35.08C42.9733 34.5733 43.2867 33.92 43.46 33.12L43.82 33.16C43.62 34.1333 43.22 34.92 42.62 35.52C42.02 36.1067 41.26 36.4 40.34 36.4C38.9667 36.4 37.92 35.94 37.2 35.02C36.48 34.0867 36.12 32.8667 36.12 31.36C36.12 29.8533 36.48 28.6533 37.2 27.76C37.9333 26.8533 39.02 26.4 40.46 26.4C41.38 26.4 42.1267 26.6 42.7 27C43.2733 27.4 43.56 28.0067 43.56 28.82C43.56 29.22 43.4267 29.56 43.16 29.84C42.9067 30.1067 42.6 30.24 42.24 30.24C41.8933 30.24 41.6067 30.14 41.38 29.94C41.1667 29.7267 41.06 29.4733 41.06 29.18C41.06 28.8733 41.1467 28.62 41.32 28.42C41.4933 28.2067 41.7267 28.1 42.02 28.1C42.4733 28.1 42.74 28.2733 42.82 28.62C42.8333 28.74 42.8933 28.8 43 28.8C43.12 28.8 43.18 28.74 43.18 28.62C43.18 28.1667 42.9733 27.7533 42.56 27.38C42.16 26.9933 41.5667 26.8 40.78 26.8Z" fill="black"/>
<path d="M49.3997 35.7V36H44.9797V35.7H46.2997V22.5H44.8797V22.2H45.2997C46.353 22.2 47.293 22.1133 48.1197 21.94V28.54H48.2397C48.4664 27.9 48.8464 27.3867 49.3797 27C49.9264 26.6 50.533 26.4 51.1997 26.4C52.3597 26.4 53.153 26.7467 53.5797 27.44C54.0064 28.12 54.2197 29.14 54.2197 30.5V35.7H55.5397V36H51.1197V35.7H52.4397V30.78C52.4397 29.2733 52.3264 28.28 52.0997 27.8C51.993 27.5867 51.8264 27.3933 51.5997 27.22C51.3864 27.0467 51.0664 26.96 50.6397 26.96C50.213 26.96 49.8064 27.1133 49.4197 27.42C49.0464 27.7267 48.7664 28.1467 48.5797 28.68C48.2464 29.6267 48.0797 30.76 48.0797 32.08V35.7H49.3997Z" fill="black"/>
<path d="M59.8775 35.7H61.1975V36H56.7775V35.7H58.0975V27.1H56.6775V26.8H57.0975C58.1375 26.8 59.0642 26.7133 59.8775 26.54V35.7ZM58.0775 24.62C57.8642 24.3933 57.7575 24.1133 57.7575 23.78C57.7575 23.4467 57.8642 23.1667 58.0775 22.94C58.3042 22.7133 58.5842 22.6 58.9175 22.6C59.2508 22.6 59.5308 22.7133 59.7575 22.94C59.9842 23.1667 60.0975 23.4467 60.0975 23.78C60.0975 24.1133 59.9842 24.3933 59.7575 24.62C59.5308 24.8333 59.2508 24.94 58.9175 24.94C58.5842 24.94 58.3042 24.8333 58.0775 24.62Z" fill="black"/>
<path d="M82.82 30.76L81.54 30.98V35.7H82.86V36H78.44V35.7H79.76V22.5H78.34V22.2H78.76C79.8 22.2 80.7267 22.1133 81.54 21.94V30.64C84.18 30.2933 85.5 29.44 85.5 28.08C85.5 27.68 85.3933 27.36 85.18 27.12C84.98 26.88 84.7267 26.76 84.42 26.76C84.2867 26.76 84.22 26.8133 84.22 26.92C84.22 27.0267 84.28 27.0933 84.4 27.12C84.7467 27.2 84.92 27.46 84.92 27.9C84.92 28.18 84.8133 28.4133 84.6 28.6C84.4 28.7733 84.1467 28.86 83.84 28.86C83.5467 28.86 83.2933 28.7533 83.08 28.54C82.88 28.3133 82.78 28.0267 82.78 27.68C82.78 27.3333 82.9133 27.0333 83.18 26.78C83.46 26.5267 83.8267 26.4 84.28 26.4C84.7333 26.4 85.1067 26.5533 85.4 26.86C85.6933 27.1533 85.84 27.56 85.84 28.08C85.84 29.1867 85.1467 29.9867 83.76 30.48V30.52C84.8 30.5733 85.48 30.8467 85.8 31.34C86.12 31.8333 86.28 32.64 86.28 33.76V34.52C86.28 35.0267 86.32 35.3933 86.4 35.62C86.4933 35.8333 86.66 35.94 86.9 35.94C86.9933 35.94 87.1133 35.92 87.26 35.88L87.3 36.12C86.9533 36.2133 86.5933 36.26 86.22 36.26C85.0733 36.26 84.5 35.6 84.5 34.28V33.2C84.5 31.5733 83.98 30.76 82.94 30.76H82.82Z" fill="black"/>
<path d="M75.7 35.7H77.02V36H72.6V35.7H73.92V27.1H72.5V26.8H72.92C73.96 26.8 74.8867 26.7133 75.7 26.54V35.7ZM73.9 24.62C73.6867 24.3933 73.58 24.1133 73.58 23.78C73.58 23.4467 73.6867 23.1667 73.9 22.94C74.1267 22.7133 74.4067 22.6 74.74 22.6C75.0733 22.6 75.3533 22.7133 75.58 22.94C75.8067 23.1667 75.92 23.4467 75.92 23.78C75.92 24.1133 75.8067 24.3933 75.58 24.62C75.3533 24.8333 75.0733 24.94 74.74 24.94C74.4067 24.94 74.1267 24.8333 73.9 24.62Z" fill="black"/>
<path d="M66.7919 30.76L65.5119 30.98V35.7H66.8319V36H62.4119V35.7H63.7319V27.1H62.3739V26.8H63C64.04 26.8 64.6986 26.7133 65.5119 26.54V27.1V30.64C68.1519 30.2933 69.4719 29.44 69.4719 28.08C69.4719 27.68 69.3652 27.36 69.1519 27.12C68.9519 26.88 68.6986 26.76 68.3919 26.76C68 26.7149 67.0789 26.7149 66.9119 26.7149C66.647 26.7149 66.38 26.9733 66.5 27C66.8467 27.08 67 27 67.5 27.5C67.5 27.78 67.5 27.5 67.5 28C67.333 28.2781 67.5 28.5 66.9119 28.6501C66.6186 28.6501 66.2133 28.7133 66 28.5C65.8 28.2733 65.5 27.8467 65.5 27.5C65.5 27.1533 65.5086 27.0533 65.7753 26.8C66.0553 26.5467 67.0467 26.4 67.5 26.4C67.9533 26.4 69.0786 26.5533 69.3719 26.86C69.6652 27.1533 69.8119 27.56 69.8119 28.08C69.8119 29.1867 69.1186 29.9867 67.7319 30.48V30.52C68.7719 30.5733 69.4519 30.8467 69.7719 31.34C70.0919 31.8333 70.2519 32.64 70.2519 33.76V34.52C70.2519 35.0267 70.2919 35.3933 70.3719 35.62C70.4652 35.8333 70.6319 35.94 70.8719 35.94C70.9652 35.94 71.0852 35.92 71.2319 35.88L71.2719 36.12C70.9252 36.2133 70.5652 36.26 70.1919 36.26C69.0452 36.26 68.4719 35.6 68.4719 34.28V33.2C68.4719 31.5733 67.9519 30.76 66.9119 30.76H66.7919Z" fill="black"/>
</svg>
